<svg width="375" height="667" viewBox="0 0 375 667" fill="none" xmlns="http://www.w3.org/2000/svg">
    <path fill-rule="evenodd" clip-rule="evenodd" d="M-222 648.007C-222.15 595.914 -171.838 545.794 -124.647 525.896C-45.9254 492.704 -71.9906 435.784 -47.5951 397.65C-15.1945 347.002 -50.7324 201.167 31.543 158.174C111.708 103.87 201.277 190.294 244.5 232.5C329.5 315.5 431.478 247.327 458.372 3.09976C471.365 -114.89 522.784 -228.826 559.921 -187.267C598.846 -143.707 934.757 72.7536 931.436 131.079C928.123 189.251 472.061 749.715 444.116 800.841C417.475 849.581 403.313 905.969 362.649 943.806C320.996 982.563 268.013 1016.47 211.13 1017.63C154.587 1018.77 113.996 956.779 57.8505 949.988C-7.22997 942.117 -87.3666 1021.24 -134.624 975.807C-184.507 927.849 -110.593 837.77 -128.416 770.906C-141.846 720.52 -221.849 700.153 -222 648.007Z" fill="url(#paint0_linear)"/>
    <defs>
        <linearGradient id="paint0_linear" x1="-194.553" y1="91.0224" x2="366.967" y2="625.119" gradientUnits="userSpaceOnUse">
            <stop stop-color="white"/>
            <stop offset="1" stop-color="#E1E3EE"/>
        </linearGradient>
    </defs>
</svg>
