<svg width="375" height="667" viewBox="0 0 375 667" fill="none" xmlns="http://www.w3.org/2000/svg">
    <path fill-rule="evenodd" clip-rule="evenodd" d="M437 112.5C555.687 151.707 436.087 354.655 514.142 452.279C581.975 537.117 642.236 618.781 710.515 703.261C801.2 815.462 1115.49 1000.96 1141.36 1142.89C1167.35 1285.49 1078.83 1365.76 977.99 1469.89C820.495 1632.53 720.03 1938.94 1255.51 2185.57C1514.21 2304.72 1734.51 2508.26 1611.73 2561.24C1483.02 2616.77 735.301 3217.02 605.063 3165.18C475.169 3113.48 -454.299 1649.9 -549.455 1547.48C-640.169 1449.84 -757.767 1374.79 -813.017 1253.51C-869.611 1129.27 -906.57 982.931 -866.011 852.581C-825.694 723.008 -783.577 737.143 -725.494 614.502C-658.169 472.344 -600.79 199.075 -461.494 126.002C-268.494 44.5019 -86.0055 238.332 88.5001 176C288.495 221.832 306.995 57.8322 437 112.5Z" fill="url(#paint0_linear)"/>
    <defs>
        <linearGradient id="paint0_linear" x1="145" y1="126.5" x2="349" y2="263" gradientUnits="userSpaceOnUse">
            <stop stop-color="white"/>
            <stop offset="1" stop-color="#F1F2F6"/>
        </linearGradient>
    </defs>
</svg>
