<svg width="16" height="16" viewBox="0 0 16 16" fill="none" xmlns="http://www.w3.org/2000/svg">
    <path fill-rule="evenodd" clip-rule="evenodd" d="M7.8659 7.13918C7.74326 7.10545 7.61756 7.08705 7.48572 7.08705C6.69778 7.08705 6.05701 7.72783 6.05701 8.51577C6.05701 9.30371 6.69778 9.94449 7.48572 9.94449C8.27366 9.94449 8.91444 9.30371 8.91444 8.51577C8.91444 8.38394 8.89604 8.25517 8.86232 8.1356L12.8419 4.15604L13.4857 4.24188L15.5 2.22758L13.9763 2.02523L13.7739 0.501465L11.7596 2.51577L11.8455 3.15962L7.8659 7.13918ZM7.63896 5.77164L8.81627 4.59433C7.37222 4.10378 5.70743 4.4349 4.55771 5.58769C2.94197 7.20342 2.94197 9.82785 4.55771 11.4436C6.17345 13.0593 8.79787 13.0593 10.4136 11.4436C11.5664 10.2908 11.8975 8.62908 11.407 7.18196L10.2297 8.35928C10.2726 9.11349 10.0058 9.88304 9.42945 10.4594C8.35638 11.5325 6.61494 11.5325 5.54187 10.4594C4.4688 9.38636 4.4688 7.64492 5.54187 6.57185C6.11826 5.99545 6.88474 5.72872 7.63896 5.77164ZM11.3487 12.3788C13.0289 10.6987 13.3876 8.19999 12.4218 6.17036L13.5439 5.0421C15.0738 7.70945 14.6998 11.1739 12.4218 13.4519C9.69622 16.1806 5.27517 16.1806 2.5465 13.4519C-0.182167 10.7263 -0.182167 6.30526 2.5465 3.57659C4.82448 1.29861 8.28896 0.924571 10.9563 2.45446L9.83112 3.57966C7.80148 2.61696 5.30276 2.9726 3.62264 4.65273C1.48876 6.7866 1.48876 10.245 3.62264 12.3788C5.75652 14.5127 9.21487 14.5127 11.3487 12.3788Z" fill="url(#paint0_linear)"/>
    <defs>
        <linearGradient id="paint0_linear" x1="1.4375" y1="3.50085" x2="14.3728" y2="14.5637" gradientUnits="userSpaceOnUse">
            <stop stop-color="#B7C659"/>
            <stop offset="1" stop-color="#3B8747"/>
        </linearGradient>
    </defs>
</svg>
