<svg width="1920" height="1080" viewBox="0 0 1920 1080" fill="none" xmlns="http://www.w3.org/2000/svg">
    <path fill-rule="evenodd" clip-rule="evenodd" d="M103.806 544.005C190.615 454.073 361 451.879 475.5 496.5C666.5 570.933 716.764 429.376 822.5 404.5C962.932 371.461 1145.5 60.9999 1359 124.5C1587.77 165 1537.69 374.516 1587.77 510.543C1666 723 1898.5 946.433 2353 570.933C2572.58 389.523 2851.53 279.317 2846 412.933C2840.21 552.985 3056.7 1487.07 2953.5 1581.93C2850.57 1676.54 1128.68 1879.15 995.115 1920.46C867.788 1959.84 749.161 2033.25 615.915 2030.42C479.427 2027.52 331.538 1997.34 231.683 1904.26C132.424 1811.72 166.162 1637.16 80.8537 1531.62C-18.0295 1409.3 -288.239 1411.57 -293.656 1254.37C-299.373 1088.43 -21.571 1056.9 59.5028 911.998C120.597 802.807 16.909 634.029 103.806 544.005Z" fill="url(#paint0_linear)"/>
    <defs>
        <linearGradient id="paint0_linear" x1="1082" y1="-369" x2="1156" y2="1489" gradientUnits="userSpaceOnUse">
            <stop stop-color="white"/>
            <stop offset="1" stop-color="#E1E3EE"/>
        </linearGradient>
    </defs>
</svg>