<svg width="1920" height="1051" viewBox="0 0 1920 1051" fill="none" xmlns="http://www.w3.org/2000/svg">
    <path fill-rule="evenodd" clip-rule="evenodd" d="M1352.5 320.166C1471.19 359.373 1353.08 536.653 1431.14 634.277C1498.97 719.116 1559.23 800.779 1627.51 885.259C1718.19 997.46 2032.48 1182.96 2058.35 1324.88C2084.34 1467.49 1995.82 1547.75 1894.98 1651.89C1737.49 1814.53 1637.02 2120.94 2172.51 2367.57C2431.21 2486.72 2651.51 2690.26 2528.72 2743.24C2400.02 2798.77 1652.3 3399.02 1522.06 3347.18C1392.16 3295.48 462.696 1831.9 367.539 1729.48C276.825 1631.83 159.228 1556.79 103.978 1435.51C47.3834 1311.27 10.4246 1164.93 50.9835 1034.58C91.3003 905.006 133.417 919.141 191.5 796.5C258.826 654.342 316.204 381.073 455.5 308C648.5 226.5 846.775 361.97 1012.5 372.166C1137.38 379.849 1233.69 280.92 1352.5 320.166Z" fill="url(#paint0_linear)"/>
    <defs>
        <linearGradient id="paint0_linear" x1="310" y1="81.5" x2="710" y2="639.5" gradientUnits="userSpaceOnUse">
            <stop stop-color="white"/>
            <stop offset="0.874872" stop-color="#E1E3EE"/>
        </linearGradient>
    </defs>
</svg>

