<svg width="1920" height="1080" viewBox="0 0 1920 1080" fill="none" xmlns="http://www.w3.org/2000/svg">
    <path fill-rule="evenodd" clip-rule="evenodd" d="M-803.194 879.087C-716.385 789.155 -559.142 850.131 -437.322 822.149C-331.457 797.83 -236.414 749.481 -130.678 724.605C9.75386 691.566 286.487 575.265 425.584 613.52C565.35 651.958 637.933 707.144 680.772 845.625C706 1058.51 991.5 1281.51 1446 906.015C1665.58 724.605 1944.53 614.399 1939 748.015C1933.21 888.067 2149.7 1822.15 2046.5 1917.01C1943.57 2011.62 221.677 2214.23 88.1149 2255.54C-39.2119 2294.92 -157.84 2368.33 -291.085 2365.5C-427.573 2362.6 -575.462 2332.42 -675.317 2239.34C-774.576 2146.81 -740.839 1972.24 -826.146 1866.7C-925.03 1744.38 -1195.24 1746.66 -1200.66 1589.45C-1206.37 1423.52 -928.571 1391.98 -847.497 1247.08C-786.403 1137.89 -890.091 969.11 -803.194 879.087Z" fill="url(#paint0_linear)"/>
    <defs>
        <linearGradient id="paint0_linear" x1="1220" y1="-88.5" x2="1056.5" y2="1435" gradientUnits="userSpaceOnUse">
            <stop stop-color="white"/>
            <stop offset="1" stop-color="#EAECF5"/>
        </linearGradient>
    </defs>
</svg>