<svg width="1183" height="802" viewBox="0 0 1183 802" fill="none" xmlns="http://www.w3.org/2000/svg">
    <path fill-rule="evenodd" clip-rule="evenodd" d="M1848.5 319.166C1967.19 358.373 1849.08 535.653 1927.14 633.277C1994.97 718.116 2055.23 799.779 2123.51 884.259C2214.19 996.46 2528.48 1181.96 2554.35 1323.88C2580.34 1466.49 2491.82 1546.75 2390.98 1650.89C2233.49 1813.53 2133.02 2119.94 2668.51 2366.57C2927.21 2485.72 3147.51 2689.26 3024.72 2742.24C2896.02 2797.77 2148.29 3398.02 2018.06 3346.18C1888.16 3294.48 958.696 1830.9 863.539 1728.48C772.825 1630.84 655.228 1555.79 599.978 1434.51C543.383 1310.27 506.424 1163.93 546.983 1033.58C587.3 904.006 646.992 872.833 705.075 750.191C772.4 608.033 765.37 351.406 904.666 278.333C1051.7 201.203 1342.77 360.97 1508.5 371.166C1633.38 378.849 1729.69 279.92 1848.5 319.166Z" fill="url(#paint0_linear)"/>
    <defs>
        <linearGradient id="paint0_linear" x1="837" y1="103.5" x2="1190" y2="498" gradientUnits="userSpaceOnUse">
            <stop stop-color="white"/>
            <stop offset="1" stop-color="#E1E3EE"/>
        </linearGradient>
    </defs>
</svg>
